<?xml version="1.0" encoding="UTF-8" standalone="no"?>
<!-- Created with Inkscape (http://www.inkscape.org/) -->

<svg
   xmlns:dc="http://purl.org/dc/elements/1.1/"
   xmlns:cc="http://creativecommons.org/ns#"
   xmlns:rdf="http://www.w3.org/1999/02/22-rdf-syntax-ns#"
   xmlns:svg="http://www.w3.org/2000/svg"
   xmlns="http://www.w3.org/2000/svg"
   xmlns:sodipodi="http://sodipodi.sourceforge.net/DTD/sodipodi-0.dtd"
   xmlns:inkscape="http://www.inkscape.org/namespaces/inkscape"
   width="73"
   height="73"
   id="svg3200"
   sodipodi:version="0.32"
   inkscape:version="0.91 r13725"
   version="1.0"
   sodipodi:docname="bicycle_selected.svg"
   inkscape:output_extension="org.inkscape.output.svg.inkscape"
   inkscape:export-filename="/home/milo/Desktop/AND/svg/residential.png"
   inkscape:export-xdpi="90"
   inkscape:export-ydpi="90">
  <title
     id="title4155">Bicycle</title>
  <defs
     id="defs3202">
    <inkscape:perspective
       sodipodi:type="inkscape:persp3d"
       inkscape:vp_x="0 : 526.18109 : 1"
       inkscape:vp_y="0 : 1000 : 0"
       inkscape:vp_z="744.09448 : 526.18109 : 1"
       inkscape:persp3d-origin="372.04724 : 350.78739 : 1"
       id="perspective3208" />
    <inkscape:perspective
       id="perspective2458"
       inkscape:persp3d-origin="372.04724 : 350.78739 : 1"
       inkscape:vp_z="744.09448 : 526.18109 : 1"
       inkscape:vp_y="0 : 1000 : 0"
       inkscape:vp_x="0 : 526.18109 : 1"
       sodipodi:type="inkscape:persp3d" />
    <inkscape:perspective
       id="perspective2532"
       inkscape:persp3d-origin="372.04724 : 350.78739 : 1"
       inkscape:vp_z="744.09448 : 526.18109 : 1"
       inkscape:vp_y="0 : 1000 : 0"
       inkscape:vp_x="0 : 526.18109 : 1"
       sodipodi:type="inkscape:persp3d" />
    <inkscape:perspective
       id="perspective2680"
       inkscape:persp3d-origin="372.04724 : 350.78739 : 1"
       inkscape:vp_z="744.09448 : 526.18109 : 1"
       inkscape:vp_y="0 : 1000 : 0"
       inkscape:vp_x="0 : 526.18109 : 1"
       sodipodi:type="inkscape:persp3d" />
    <inkscape:perspective
       id="perspective2749"
       inkscape:persp3d-origin="372.04724 : 350.78739 : 1"
       inkscape:vp_z="744.09448 : 526.18109 : 1"
       inkscape:vp_y="0 : 1000 : 0"
       inkscape:vp_x="0 : 526.18109 : 1"
       sodipodi:type="inkscape:persp3d" />
    <inkscape:perspective
       sodipodi:type="inkscape:persp3d"
       inkscape:vp_x="0 : 526.18109 : 1"
       inkscape:vp_y="0 : 1000 : 0"
       inkscape:vp_z="744.09448 : 526.18109 : 1"
       inkscape:persp3d-origin="372.04724 : 350.78739 : 1"
       id="perspective2474" />
    <inkscape:perspective
       id="perspective10"
       inkscape:persp3d-origin="372.04724 : 350.78739 : 1"
       inkscape:vp_z="744.09448 : 526.18109 : 1"
       inkscape:vp_y="0 : 1000 : 0"
       inkscape:vp_x="0 : 526.18109 : 1"
       sodipodi:type="inkscape:persp3d" />
  </defs>
  <sodipodi:namedview
     id="base"
     pagecolor="#ffffff"
     bordercolor="#666666"
     borderopacity="1.0"
     gridtolerance="10000"
     guidetolerance="10"
     objecttolerance="10"
     inkscape:pageopacity="0.0"
     inkscape:pageshadow="2"
     inkscape:zoom="5.6"
     inkscape:cx="24.536796"
     inkscape:cy="26.531599"
     inkscape:document-units="px"
     inkscape:current-layer="layer1"
     showgrid="false"
     inkscape:window-width="1295"
     inkscape:window-height="744"
     inkscape:window-x="65"
     inkscape:window-y="24"
     fit-margin-top="0"
     fit-margin-left="0"
     fit-margin-right="0"
     fit-margin-bottom="0"
     inkscape:window-maximized="1" />
  <metadata
     id="metadata3205">
    <rdf:RDF>
      <cc:Work
         rdf:about="">
        <dc:format>image/svg+xml</dc:format>
        <dc:type
           rdf:resource="http://purl.org/dc/dcmitype/StillImage" />
        <dc:title>Bicycle</dc:title>
        <cc:license
           rdf:resource="http://creativecommons.org/licenses/by/3.0/" />
        <dc:creator>
          <cc:Agent>
            <dc:title>Frans Schreuder</dc:title>
          </cc:Agent>
        </dc:creator>
      </cc:Work>
      <cc:License
         rdf:about="http://creativecommons.org/licenses/by/3.0/">
        <cc:permits
           rdf:resource="http://creativecommons.org/ns#Reproduction" />
        <cc:permits
           rdf:resource="http://creativecommons.org/ns#Distribution" />
        <cc:requires
           rdf:resource="http://creativecommons.org/ns#Notice" />
        <cc:requires
           rdf:resource="http://creativecommons.org/ns#Attribution" />
        <cc:permits
           rdf:resource="http://creativecommons.org/ns#DerivativeWorks" />
      </cc:License>
    </rdf:RDF>
  </metadata>
  <g
     inkscape:label="Layer 1"
     inkscape:groupmode="layer"
     id="layer1"
     transform="translate(-12.5,-4.4999988)">
    <path
       style="font-style:normal;font-variant:normal;font-weight:normal;font-stretch:normal;font-size:72.72727203px;font-family:RoadSign;-inkscape-font-specification:RoadSign;fill:#ffffff;fill-opacity:1;stroke:#000000;stroke-width:1px;stroke-linecap:butt;stroke-linejoin:miter;stroke-opacity:1"
       d="m 84.999999,74.636362 c -7.6e-5,1.575744 -0.787954,2.363622 -2.363636,2.363636 l -67.272727,0 C 13.787874,76.999984 12.999996,76.212106 13,74.636362 L 13,7.3636352 c -4e-6,-1.5757006 0.787874,-2.3635786 2.363636,-2.3636364 l 67.272727,0 c 1.575682,5.78e-5 2.36356,0.7879358 2.363636,2.3636364 l 0,67.2727268"
       id="path3231"
       inkscape:connector-curvature="0" />
    <text
       xml:space="preserve"
       style="font-style:normal;font-variant:normal;font-weight:normal;font-stretch:normal;font-size:72px;font-family:RoadSign;-inkscape-font-specification:RoadSign;fill:#000000;fill-opacity:1;stroke:none;stroke-width:1px;stroke-linecap:butt;stroke-linejoin:miter;stroke-opacity:1"
       x="-35.535713"
       y="68.785713"
       id="text3301"><tspan
         sodipodi:role="line"
         id="tspan3303"
         x="-35.535713"
         y="68.785713" /></text>
    <text
       xml:space="preserve"
       style="font-style:normal;font-variant:normal;font-weight:normal;font-stretch:normal;font-size:72px;font-family:RoadSign;-inkscape-font-specification:RoadSign;fill:#000000;fill-opacity:1;stroke:none;stroke-width:1px;stroke-linecap:butt;stroke-linejoin:miter;stroke-opacity:1"
       x="-14.285714"
       y="63.25"
       id="text3305"><tspan
         sodipodi:role="line"
         id="tspan3307"
         x="-14.285714"
         y="63.25" /></text>
    <text
       xml:space="preserve"
       style="font-style:normal;font-variant:normal;font-weight:normal;font-stretch:normal;font-size:72px;font-family:RoadSign;-inkscape-font-specification:RoadSign;fill:#000000;fill-opacity:1;stroke:none;stroke-width:1px;stroke-linecap:butt;stroke-linejoin:miter;stroke-opacity:1"
       x="-10.535714"
       y="52.535713"
       id="text3309"><tspan
         sodipodi:role="line"
         id="tspan3311"
         x="-10.535714"
         y="52.535713" /></text>
    <path
       style="font-style:normal;font-variant:normal;font-weight:normal;font-stretch:normal;font-size:72px;font-family:'DNR Recreation Symbols';-inkscape-font-specification:'DNR Recreation Symbols';fill:#000000;fill-opacity:1;stroke:none;stroke-width:1px;stroke-linecap:butt;stroke-linejoin:miter;stroke-opacity:1"
       d="m 57.120282,25.87914 c -3.8e-5,-1.151953 -0.408037,-2.111952 -1.224,-2.88 -0.768036,-0.76795 -1.728035,-1.15195 -2.88,-1.152 -1.104032,5e-5 -2.064031,0.40805 -2.88,1.224 -0.76803,0.768048 -1.152029,1.704047 -1.152,2.808 -2.9e-5,1.104045 0.38397,2.064044 1.152,2.88 0.815969,0.768043 1.775968,1.152042 2.88,1.152 1.151965,4.2e-5 2.111964,-0.383957 2.88,-1.152 0.815963,-0.767956 1.223962,-1.727955 1.224,-2.88"
       id="path3555"
       inkscape:connector-curvature="0" />
    <path
       style="font-style:normal;font-variant:normal;font-weight:normal;font-stretch:normal;font-size:72px;font-family:'DNR Recreation Symbols';-inkscape-font-specification:'DNR Recreation Symbols';fill:#000000;fill-opacity:1;stroke:none;stroke-width:1px;stroke-linecap:butt;stroke-linejoin:miter;stroke-opacity:1"
       d="m 73.608282,55.32714 c -5.4e-5,-3.02398 -1.080053,-5.591978 -3.24,-7.704 -2.112049,-2.159973 -4.680046,-3.239972 -7.704,-3.24 -3.02404,2.8e-5 -5.616037,1.080027 -7.776,3.24 -2.112033,2.112022 -3.168032,4.68002 -3.168,7.704 -3.2e-5,3.024014 1.055967,5.616011 3.168,7.776 2.159963,2.112007 4.75196,3.168006 7.776,3.168 3.023954,6e-6 5.591951,-1.055993 7.704,-3.168 2.159947,-2.159989 3.239946,-4.751986 3.24,-7.776"
       id="path3553"
       inkscape:connector-curvature="0" />
    <path
       style="font-style:normal;font-variant:normal;font-weight:normal;font-stretch:normal;font-size:72px;font-family:'DNR Recreation Symbols';-inkscape-font-specification:'DNR Recreation Symbols';fill:#000000;fill-opacity:1;stroke:none;stroke-width:1px;stroke-linecap:butt;stroke-linejoin:miter;stroke-opacity:1"
       d="m 59.640282,37.75914 c -4e-5,-1.199964 -0.576039,-1.799964 -1.728,-1.8 l -4.824,0 -3.6,-6.768 c -0.576029,-0.815956 -1.368029,-1.223956 -2.376,-1.224 -1.056026,4.4e-5 -1.848026,0.384044 -2.376,1.152 l -7.776,7.632 c -0.624017,0.624035 -0.936016,1.488034 -0.936,2.592 -1.6e-5,1.440031 0.455983,2.40003 1.368,2.88 l 8.784,4.824 -0.072,8.784 c -2.6e-5,1.440015 0.719973,2.160014 2.16,2.16 1.48797,1.4e-5 2.231969,-0.719985 2.232,-2.16 l 0,-10.8 c -3.1e-5,-0.575972 -0.264031,-1.319972 -0.792,-2.232 l -5.904,-3.168 4.752,-4.824 2.016,3.888 c 0.287969,0.528033 0.791968,0.792033 1.512,0.792 l 5.76,0 c 1.199961,3.3e-5 1.79996,-0.575967 1.8,-1.728"
       id="path3551"
       inkscape:connector-curvature="0" />
    <path
       style="font-style:normal;font-variant:normal;font-weight:normal;font-stretch:normal;font-size:72px;font-family:'DNR Recreation Symbols';-inkscape-font-specification:'DNR Recreation Symbols';fill:#000000;fill-opacity:1;stroke:none;stroke-width:1px;stroke-linecap:butt;stroke-linejoin:miter;stroke-opacity:1"
       d="m 45.168282,55.32714 c -2.6e-5,-3.02398 -1.080024,-5.591978 -3.24,-7.704 -2.11202,-2.159973 -4.680018,-3.239972 -7.704,-3.24 -3.024012,2.8e-5 -5.616009,1.080027 -7.776,3.24 -2.112005,2.112022 -3.168004,4.68002 -3.168,7.704 -4e-6,3.024014 1.055995,5.616011 3.168,7.776 2.159991,2.112007 4.751988,3.168006 7.776,3.168 3.023982,6e-6 5.59198,-1.055993 7.704,-3.168 2.159976,-2.159989 3.239974,-4.751986 3.24,-7.776"
       id="path3549"
       inkscape:connector-curvature="0" />
    <path
       style="font-style:normal;font-variant:normal;font-weight:normal;font-stretch:normal;font-size:72px;font-family:'DNR Recreation Symbols';-inkscape-font-specification:'DNR Recreation Symbols';fill:#ffffff;fill-opacity:1;stroke:none;stroke-width:1px;stroke-linecap:butt;stroke-linejoin:miter;stroke-opacity:1"
       d="m 71.520282,55.32714 c -5.2e-5,2.448014 -0.864051,4.536012 -2.592,6.264 -1.728048,1.728009 -3.816045,2.592008 -6.264,2.592 -2.448041,8e-6 -4.536039,-0.863991 -6.264,-2.592 -1.728035,-1.727988 -2.592034,-3.815986 -2.592,-6.264 -3.4e-5,-2.447981 0.863965,-4.535979 2.592,-6.264 1.727961,-1.727975 3.815959,-2.591974 6.264,-2.592 2.447955,2.6e-5 4.535952,0.864025 6.264,2.592 1.727949,1.728021 2.591948,3.816019 2.592,6.264"
       id="path3547"
       inkscape:connector-curvature="0" />
    <path
       style="font-style:normal;font-variant:normal;font-weight:normal;font-stretch:normal;font-size:72px;font-family:'DNR Recreation Symbols';-inkscape-font-specification:'DNR Recreation Symbols';fill:#ffffff;fill-opacity:1;stroke:none;stroke-width:1px;stroke-linecap:butt;stroke-linejoin:miter;stroke-opacity:1"
       d="m 43.080282,55.32714 c -2.3e-5,2.448014 -0.864023,4.536012 -2.592,6.264 -1.728019,1.728009 -3.816017,2.592008 -6.264,2.592 -2.448012,8e-6 -4.53601,-0.863991 -6.264,-2.592 -1.728007,-1.727988 -2.592006,-3.815986 -2.592,-6.264 -6e-6,-2.447981 0.863993,-4.535979 2.592,-6.264 1.72799,-1.727975 3.815988,-2.591974 6.264,-2.592 2.447983,2.6e-5 4.535981,0.864025 6.264,2.592 1.727977,1.728021 2.591977,3.816019 2.592,6.264"
       id="text3540"
       inkscape:connector-curvature="0" />
    <path
       style="fill:#0000ff;fill-opacity:1;stroke:#0000ff;stroke-width:0.26785713;stroke-miterlimit:4;stroke-dasharray:none;stroke-opacity:1"
       d="M 2.0291175,71.792049 C 1.8186442,71.706719 1.5173049,71.452539 1.3594747,71.227205 1.098326,70.854362 1.0725106,67.737491 1.0725106,36.579928 1.0725106,11.868227 1.1276731,2.2212805 1.2707735,1.9072093 1.379818,1.6678825 1.6648491,1.3828515 1.9041758,1.2738069 2.2182512,1.1307046 11.873147,1.0755441 36.60667,1.0755441 l 34.267353,0 0.501031,0.4309672 0.501028,0.4309672 0,34.5640725 0,34.564072 -0.406736,0.406746 -0.406735,0.406747 -34.325407,0.03404 C 17.629992,71.932105 2.2421354,71.878412 2.0291175,71.792049 Z M 24.446955,61.515287 c 3.715586,-0.875839 7.096447,-4.286325 7.97934,-8.049257 0.398139,-1.696891 0.273371,-4.754591 -0.253708,-6.217657 -1.128373,-3.132131 -4.033491,-5.981043 -7.074803,-6.937925 -1.820889,-0.572902 -5.219955,-0.558536 -6.882416,0.02909 -2.384968,0.843007 -4.675875,2.690148 -5.955608,4.801962 -1.900313,3.135895 -2.039387,7.332513 -0.356301,10.751515 1.279049,2.598246 4.227112,4.95088 7.064941,5.638014 1.304284,0.315811 4.106159,0.307761 5.478555,-0.01573 l 0,-9e-6 z m 28.668893,-0.07998 c 1.904982,-0.487213 3.152591,-1.243902 4.841273,-2.936284 2.298397,-2.303434 3.191413,-4.520977 3.169252,-7.869905 -0.0096,-1.443195 -0.103673,-2.058424 -0.490705,-3.207477 -1.450182,-4.305398 -5.253398,-7.278375 -9.652843,-7.545632 -3.352138,-0.203638 -6.009782,0.745157 -8.371689,2.988737 -2.393211,2.273316 -3.405882,4.637998 -3.40155,7.942943 0.0029,2.235807 0.286085,3.42167 1.262196,5.286116 1.44082,2.752077 4.304618,4.9245 7.262007,5.508821 1.433215,0.283177 3.923322,0.205763 5.382059,-0.167319 z m -15.578364,-8.556568 0.51212,-0.573161 -0.05105,-6.373944 c -0.04634,-5.78665 -0.08156,-6.435316 -0.382198,-7.040015 -0.282111,-0.56743 -0.657411,-0.83915 -2.53425,-1.834807 -1.211705,-0.642807 -2.525839,-1.352057 -2.920298,-1.576114 l -0.717197,-0.407375 2.289623,-2.284541 2.289622,-2.284539 1.101212,2.068005 c 0.605668,1.137402 1.25419,2.149873 1.441159,2.249937 0.199275,0.106649 1.862956,0.181933 4.020515,0.181933 3.669671,0 3.681869,-0.0013 4.118882,-0.438313 0.566843,-0.566841 0.619244,-1.97692 0.09745,-2.622262 -0.326977,-0.404395 -0.459734,-0.425206 -3.258929,-0.510854 l -2.918068,-0.08929 -1.785714,-3.340089 c -0.982143,-1.837048 -1.946429,-3.51555 -2.142857,-3.730004 -0.721891,-0.78813 -2.162632,-1.097601 -3.226616,-0.693076 -0.642668,0.244342 -9.176329,8.609009 -9.626568,9.43593 -0.460929,0.846559 -0.478509,2.882879 -0.0322,3.729996 0.367028,0.696645 0.526341,0.797918 5.697884,3.622133 l 4.0625,2.218557 0,4.845266 c 0,4.679205 0.01309,4.861902 0.381807,5.330655 0.51993,0.660984 0.966661,0.820125 2.103548,0.749355 0.825271,-0.05137 1.04278,-0.144482 1.479618,-0.633387 z m 4.961768,-27.873688 c 0.841882,-0.429496 1.688398,-1.391585 1.966891,-2.235425 0.364193,-1.103514 0.159387,-2.783055 -0.445872,-3.656444 -0.756169,-1.091153 -2.057546,-1.783854 -3.355282,-1.78596 -4.933028,-0.008 -5.874189,6.818954 -1.110335,8.054113 0.763173,0.197874 2.172064,0.01784 2.944598,-0.376284 z"
       id="path4156"
       inkscape:connector-curvature="0"
       transform="translate(12.5,4.4999988)" />
    <path
       style="fill:#0000ff;fill-opacity:1;stroke:#0000ff;stroke-width:0.26785713;stroke-miterlimit:4;stroke-dasharray:none;stroke-opacity:1"
       d="m 48.262271,59.376595 c -3.055245,-0.663776 -5.779058,-3.25977 -6.557974,-6.25023 -0.767719,-2.947473 -0.03917,-5.934658 1.979099,-8.114625 1.864525,-2.01391 3.830063,-2.885 6.501594,-2.88139 2.6525,0.0036 4.655062,0.883813 6.430662,2.826602 3.176612,3.475719 3.084859,8.501886 -0.217994,11.941463 -1.249326,1.301043 -2.715794,2.132663 -4.38411,2.486186 -1.467198,0.310906 -2.291481,0.309147 -3.751277,-0.008 z"
       id="path4158"
       inkscape:connector-curvature="0"
       transform="translate(12.5,4.4999988)" />
    <path
       style="fill:#0000ff;fill-opacity:1;stroke:#0000ff;stroke-width:0.26785713;stroke-miterlimit:4;stroke-dasharray:none;stroke-opacity:1"
       d="m 20.179654,59.466354 c -2.756325,-0.475454 -5.117837,-2.31713 -6.408688,-4.997953 -0.639045,-1.32716 -0.644884,-1.360303 -0.644884,-3.660714 0,-2.319752 4.84e-4,-2.322418 0.669334,-3.690762 2.962058,-6.059826 11.057851,-6.795473 15.053424,-1.367872 2.524489,3.429274 2.115147,8.139161 -0.976458,11.235183 -2.118372,2.121397 -4.788802,2.983031 -7.692728,2.482118 z"
       id="path4160"
       inkscape:connector-curvature="0"
       transform="translate(12.5,4.4999988)" />
  </g>
</svg>
