<?xml version="1.0" encoding="UTF-8" standalone="no"?>
<!-- Created with Inkscape (http://www.inkscape.org/) -->

<svg
   xmlns:dc="http://purl.org/dc/elements/1.1/"
   xmlns:cc="http://creativecommons.org/ns#"
   xmlns:rdf="http://www.w3.org/1999/02/22-rdf-syntax-ns#"
   xmlns:svg="http://www.w3.org/2000/svg"
   xmlns="http://www.w3.org/2000/svg"
   xmlns:sodipodi="http://sodipodi.sourceforge.net/DTD/sodipodi-0.dtd"
   xmlns:inkscape="http://www.inkscape.org/namespaces/inkscape"
   width="73"
   height="73"
   id="svg3200"
   sodipodi:version="0.32"
   inkscape:version="0.91 r13725"
   version="1.0"
   sodipodi:docname="Bicycle_clip_art.svg"
   inkscape:output_extension="org.inkscape.output.svg.inkscape"
   inkscape:export-filename="/home/milo/Desktop/AND/svg/residential.png"
   inkscape:export-xdpi="90"
   inkscape:export-ydpi="90">
  <title
     id="title4155">Bicycle</title>
  <defs
     id="defs3202">
    <inkscape:perspective
       sodipodi:type="inkscape:persp3d"
       inkscape:vp_x="0 : 526.18109 : 1"
       inkscape:vp_y="0 : 1000 : 0"
       inkscape:vp_z="744.09448 : 526.18109 : 1"
       inkscape:persp3d-origin="372.04724 : 350.78739 : 1"
       id="perspective3208" />
    <inkscape:perspective
       id="perspective2458"
       inkscape:persp3d-origin="372.04724 : 350.78739 : 1"
       inkscape:vp_z="744.09448 : 526.18109 : 1"
       inkscape:vp_y="0 : 1000 : 0"
       inkscape:vp_x="0 : 526.18109 : 1"
       sodipodi:type="inkscape:persp3d" />
    <inkscape:perspective
       id="perspective2532"
       inkscape:persp3d-origin="372.04724 : 350.78739 : 1"
       inkscape:vp_z="744.09448 : 526.18109 : 1"
       inkscape:vp_y="0 : 1000 : 0"
       inkscape:vp_x="0 : 526.18109 : 1"
       sodipodi:type="inkscape:persp3d" />
    <inkscape:perspective
       id="perspective2680"
       inkscape:persp3d-origin="372.04724 : 350.78739 : 1"
       inkscape:vp_z="744.09448 : 526.18109 : 1"
       inkscape:vp_y="0 : 1000 : 0"
       inkscape:vp_x="0 : 526.18109 : 1"
       sodipodi:type="inkscape:persp3d" />
    <inkscape:perspective
       id="perspective2749"
       inkscape:persp3d-origin="372.04724 : 350.78739 : 1"
       inkscape:vp_z="744.09448 : 526.18109 : 1"
       inkscape:vp_y="0 : 1000 : 0"
       inkscape:vp_x="0 : 526.18109 : 1"
       sodipodi:type="inkscape:persp3d" />
    <inkscape:perspective
       sodipodi:type="inkscape:persp3d"
       inkscape:vp_x="0 : 526.18109 : 1"
       inkscape:vp_y="0 : 1000 : 0"
       inkscape:vp_z="744.09448 : 526.18109 : 1"
       inkscape:persp3d-origin="372.04724 : 350.78739 : 1"
       id="perspective2474" />
    <inkscape:perspective
       id="perspective10"
       inkscape:persp3d-origin="372.04724 : 350.78739 : 1"
       inkscape:vp_z="744.09448 : 526.18109 : 1"
       inkscape:vp_y="0 : 1000 : 0"
       inkscape:vp_x="0 : 526.18109 : 1"
       sodipodi:type="inkscape:persp3d" />
  </defs>
  <sodipodi:namedview
     id="base"
     pagecolor="#ffffff"
     bordercolor="#666666"
     borderopacity="1.0"
     gridtolerance="10000"
     guidetolerance="10"
     objecttolerance="10"
     inkscape:pageopacity="0.0"
     inkscape:pageshadow="2"
     inkscape:zoom="5.6"
     inkscape:cx="9.2543033"
     inkscape:cy="35.164877"
     inkscape:document-units="px"
     inkscape:current-layer="layer1"
     showgrid="false"
     inkscape:window-width="1295"
     inkscape:window-height="744"
     inkscape:window-x="65"
     inkscape:window-y="24"
     fit-margin-top="0"
     fit-margin-left="0"
     fit-margin-right="0"
     fit-margin-bottom="0"
     inkscape:window-maximized="1" />
  <metadata
     id="metadata3205">
    <rdf:RDF>
      <cc:Work
         rdf:about="">
        <dc:format>image/svg+xml</dc:format>
        <dc:type
           rdf:resource="http://purl.org/dc/dcmitype/StillImage" />
        <dc:title>Bicycle</dc:title>
        <cc:license
           rdf:resource="http://creativecommons.org/licenses/by/3.0/" />
        <dc:creator>
          <cc:Agent>
            <dc:title>Frans Schreuder</dc:title>
          </cc:Agent>
        </dc:creator>
      </cc:Work>
      <cc:License
         rdf:about="http://creativecommons.org/licenses/by/3.0/">
        <cc:permits
           rdf:resource="http://creativecommons.org/ns#Reproduction" />
        <cc:permits
           rdf:resource="http://creativecommons.org/ns#Distribution" />
        <cc:requires
           rdf:resource="http://creativecommons.org/ns#Notice" />
        <cc:requires
           rdf:resource="http://creativecommons.org/ns#Attribution" />
        <cc:permits
           rdf:resource="http://creativecommons.org/ns#DerivativeWorks" />
      </cc:License>
    </rdf:RDF>
  </metadata>
  <g
     inkscape:label="Layer 1"
     inkscape:groupmode="layer"
     id="layer1"
     transform="translate(-12.5,-4.4999988)">
    <path
       style="font-style:normal;font-variant:normal;font-weight:normal;font-stretch:normal;font-size:72.72727203px;font-family:RoadSign;-inkscape-font-specification:RoadSign;fill:#ffffff;fill-opacity:1;stroke:#000000;stroke-width:1px;stroke-linecap:butt;stroke-linejoin:miter;stroke-opacity:1"
       d="m 84.999999,74.636362 c -7.6e-5,1.575744 -0.787954,2.363622 -2.363636,2.363636 l -67.272727,0 C 13.787874,76.999984 12.999996,76.212106 13,74.636362 L 13,7.3636352 c -4e-6,-1.5757006 0.787874,-2.3635786 2.363636,-2.3636364 l 67.272727,0 c 1.575682,5.78e-5 2.36356,0.7879358 2.363636,2.3636364 l 0,67.2727268"
       id="path3231"
       inkscape:connector-curvature="0" />
    <text
       xml:space="preserve"
       style="font-style:normal;font-variant:normal;font-weight:normal;font-stretch:normal;font-size:72px;font-family:RoadSign;-inkscape-font-specification:RoadSign;fill:#000000;fill-opacity:1;stroke:none;stroke-width:1px;stroke-linecap:butt;stroke-linejoin:miter;stroke-opacity:1"
       x="-35.535713"
       y="68.785713"
       id="text3301"><tspan
         sodipodi:role="line"
         id="tspan3303"
         x="-35.535713"
         y="68.785713" /></text>
    <text
       xml:space="preserve"
       style="font-style:normal;font-variant:normal;font-weight:normal;font-stretch:normal;font-size:72px;font-family:RoadSign;-inkscape-font-specification:RoadSign;fill:#000000;fill-opacity:1;stroke:none;stroke-width:1px;stroke-linecap:butt;stroke-linejoin:miter;stroke-opacity:1"
       x="-14.285714"
       y="63.25"
       id="text3305"><tspan
         sodipodi:role="line"
         id="tspan3307"
         x="-14.285714"
         y="63.25" /></text>
    <text
       xml:space="preserve"
       style="font-style:normal;font-variant:normal;font-weight:normal;font-stretch:normal;font-size:72px;font-family:RoadSign;-inkscape-font-specification:RoadSign;fill:#000000;fill-opacity:1;stroke:none;stroke-width:1px;stroke-linecap:butt;stroke-linejoin:miter;stroke-opacity:1"
       x="-10.535714"
       y="52.535713"
       id="text3309"><tspan
         sodipodi:role="line"
         id="tspan3311"
         x="-10.535714"
         y="52.535713" /></text>
    <path
       style="font-style:normal;font-variant:normal;font-weight:normal;font-stretch:normal;font-size:72px;font-family:'DNR Recreation Symbols';-inkscape-font-specification:'DNR Recreation Symbols';fill:#000000;fill-opacity:1;stroke:none;stroke-width:1px;stroke-linecap:butt;stroke-linejoin:miter;stroke-opacity:1"
       d="m 57.120282,25.87914 c -3.8e-5,-1.151953 -0.408037,-2.111952 -1.224,-2.88 -0.768036,-0.76795 -1.728035,-1.15195 -2.88,-1.152 -1.104032,5e-5 -2.064031,0.40805 -2.88,1.224 -0.76803,0.768048 -1.152029,1.704047 -1.152,2.808 -2.9e-5,1.104045 0.38397,2.064044 1.152,2.88 0.815969,0.768043 1.775968,1.152042 2.88,1.152 1.151965,4.2e-5 2.111964,-0.383957 2.88,-1.152 0.815963,-0.767956 1.223962,-1.727955 1.224,-2.88"
       id="path3555"
       inkscape:connector-curvature="0" />
    <path
       style="font-style:normal;font-variant:normal;font-weight:normal;font-stretch:normal;font-size:72px;font-family:'DNR Recreation Symbols';-inkscape-font-specification:'DNR Recreation Symbols';fill:#000000;fill-opacity:1;stroke:none;stroke-width:1px;stroke-linecap:butt;stroke-linejoin:miter;stroke-opacity:1"
       d="m 73.608282,55.32714 c -5.4e-5,-3.02398 -1.080053,-5.591978 -3.24,-7.704 -2.112049,-2.159973 -4.680046,-3.239972 -7.704,-3.24 -3.02404,2.8e-5 -5.616037,1.080027 -7.776,3.24 -2.112033,2.112022 -3.168032,4.68002 -3.168,7.704 -3.2e-5,3.024014 1.055967,5.616011 3.168,7.776 2.159963,2.112007 4.75196,3.168006 7.776,3.168 3.023954,6e-6 5.591951,-1.055993 7.704,-3.168 2.159947,-2.159989 3.239946,-4.751986 3.24,-7.776"
       id="path3553"
       inkscape:connector-curvature="0" />
    <path
       style="font-style:normal;font-variant:normal;font-weight:normal;font-stretch:normal;font-size:72px;font-family:'DNR Recreation Symbols';-inkscape-font-specification:'DNR Recreation Symbols';fill:#000000;fill-opacity:1;stroke:none;stroke-width:1px;stroke-linecap:butt;stroke-linejoin:miter;stroke-opacity:1"
       d="m 59.640282,37.75914 c -4e-5,-1.199964 -0.576039,-1.799964 -1.728,-1.8 l -4.824,0 -3.6,-6.768 c -0.576029,-0.815956 -1.368029,-1.223956 -2.376,-1.224 -1.056026,4.4e-5 -1.848026,0.384044 -2.376,1.152 l -7.776,7.632 c -0.624017,0.624035 -0.936016,1.488034 -0.936,2.592 -1.6e-5,1.440031 0.455983,2.40003 1.368,2.88 l 8.784,4.824 -0.072,8.784 c -2.6e-5,1.440015 0.719973,2.160014 2.16,2.16 1.48797,1.4e-5 2.231969,-0.719985 2.232,-2.16 l 0,-10.8 c -3.1e-5,-0.575972 -0.264031,-1.319972 -0.792,-2.232 l -5.904,-3.168 4.752,-4.824 2.016,3.888 c 0.287969,0.528033 0.791968,0.792033 1.512,0.792 l 5.76,0 c 1.199961,3.3e-5 1.79996,-0.575967 1.8,-1.728"
       id="path3551"
       inkscape:connector-curvature="0" />
    <path
       style="font-style:normal;font-variant:normal;font-weight:normal;font-stretch:normal;font-size:72px;font-family:'DNR Recreation Symbols';-inkscape-font-specification:'DNR Recreation Symbols';fill:#000000;fill-opacity:1;stroke:none;stroke-width:1px;stroke-linecap:butt;stroke-linejoin:miter;stroke-opacity:1"
       d="m 45.168282,55.32714 c -2.6e-5,-3.02398 -1.080024,-5.591978 -3.24,-7.704 -2.11202,-2.159973 -4.680018,-3.239972 -7.704,-3.24 -3.024012,2.8e-5 -5.616009,1.080027 -7.776,3.24 -2.112005,2.112022 -3.168004,4.68002 -3.168,7.704 -4e-6,3.024014 1.055995,5.616011 3.168,7.776 2.159991,2.112007 4.751988,3.168006 7.776,3.168 3.023982,6e-6 5.59198,-1.055993 7.704,-3.168 2.159976,-2.159989 3.239974,-4.751986 3.24,-7.776"
       id="path3549"
       inkscape:connector-curvature="0" />
    <path
       style="font-style:normal;font-variant:normal;font-weight:normal;font-stretch:normal;font-size:72px;font-family:'DNR Recreation Symbols';-inkscape-font-specification:'DNR Recreation Symbols';fill:#ffffff;fill-opacity:1;stroke:none;stroke-width:1px;stroke-linecap:butt;stroke-linejoin:miter;stroke-opacity:1"
       d="m 71.520282,55.32714 c -5.2e-5,2.448014 -0.864051,4.536012 -2.592,6.264 -1.728048,1.728009 -3.816045,2.592008 -6.264,2.592 -2.448041,8e-6 -4.536039,-0.863991 -6.264,-2.592 -1.728035,-1.727988 -2.592034,-3.815986 -2.592,-6.264 -3.4e-5,-2.447981 0.863965,-4.535979 2.592,-6.264 1.727961,-1.727975 3.815959,-2.591974 6.264,-2.592 2.447955,2.6e-5 4.535952,0.864025 6.264,2.592 1.727949,1.728021 2.591948,3.816019 2.592,6.264"
       id="path3547"
       inkscape:connector-curvature="0" />
    <path
       style="font-style:normal;font-variant:normal;font-weight:normal;font-stretch:normal;font-size:72px;font-family:'DNR Recreation Symbols';-inkscape-font-specification:'DNR Recreation Symbols';fill:#ffffff;fill-opacity:1;stroke:none;stroke-width:1px;stroke-linecap:butt;stroke-linejoin:miter;stroke-opacity:1"
       d="m 43.080282,55.32714 c -2.3e-5,2.448014 -0.864023,4.536012 -2.592,6.264 -1.728019,1.728009 -3.816017,2.592008 -6.264,2.592 -2.448012,8e-6 -4.53601,-0.863991 -6.264,-2.592 -1.728007,-1.727988 -2.592006,-3.815986 -2.592,-6.264 -6e-6,-2.447981 0.863993,-4.535979 2.592,-6.264 1.72799,-1.727975 3.815988,-2.591974 6.264,-2.592 2.447983,2.6e-5 4.535981,0.864025 6.264,2.592 1.727977,1.728021 2.591977,3.816019 2.592,6.264"
       id="text3540"
       inkscape:connector-curvature="0" />
  </g>
</svg>
