<?xml version="1.0" encoding="UTF-8" standalone="no"?>
<!-- Created with Inkscape (http://www.inkscape.org/) -->

<svg
   xmlns:dc="http://purl.org/dc/elements/1.1/"
   xmlns:cc="http://creativecommons.org/ns#"
   xmlns:rdf="http://www.w3.org/1999/02/22-rdf-syntax-ns#"
   xmlns:svg="http://www.w3.org/2000/svg"
   xmlns="http://www.w3.org/2000/svg"
   xmlns:xlink="http://www.w3.org/1999/xlink"
   xmlns:sodipodi="http://sodipodi.sourceforge.net/DTD/sodipodi-0.dtd"
   xmlns:inkscape="http://www.inkscape.org/namespaces/inkscape"
   width="73"
   height="73"
   id="svg3200"
   sodipodi:version="0.32"
   inkscape:version="0.91 r13725"
   version="1.0"
   sodipodi:docname="car_selected.svg"
   inkscape:output_extension="org.inkscape.output.svg.inkscape"
   inkscape:export-filename="/home/milo/Desktop/AND/svg/residential.png"
   inkscape:export-xdpi="90"
   inkscape:export-ydpi="90">
  <title
     id="title4832">Car</title>
  <defs
     id="defs3202">
    <inkscape:perspective
       sodipodi:type="inkscape:persp3d"
       inkscape:vp_x="0 : 526.18109 : 1"
       inkscape:vp_y="0 : 1000 : 0"
       inkscape:vp_z="744.09448 : 526.18109 : 1"
       inkscape:persp3d-origin="372.04724 : 350.78739 : 1"
       id="perspective3208" />
    <inkscape:perspective
       id="perspective2458"
       inkscape:persp3d-origin="372.04724 : 350.78739 : 1"
       inkscape:vp_z="744.09448 : 526.18109 : 1"
       inkscape:vp_y="0 : 1000 : 0"
       inkscape:vp_x="0 : 526.18109 : 1"
       sodipodi:type="inkscape:persp3d" />
    <inkscape:perspective
       id="perspective2532"
       inkscape:persp3d-origin="372.04724 : 350.78739 : 1"
       inkscape:vp_z="744.09448 : 526.18109 : 1"
       inkscape:vp_y="0 : 1000 : 0"
       inkscape:vp_x="0 : 526.18109 : 1"
       sodipodi:type="inkscape:persp3d" />
    <inkscape:perspective
       id="perspective2680"
       inkscape:persp3d-origin="372.04724 : 350.78739 : 1"
       inkscape:vp_z="744.09448 : 526.18109 : 1"
       inkscape:vp_y="0 : 1000 : 0"
       inkscape:vp_x="0 : 526.18109 : 1"
       sodipodi:type="inkscape:persp3d" />
    <inkscape:perspective
       id="perspective2749"
       inkscape:persp3d-origin="372.04724 : 350.78739 : 1"
       inkscape:vp_z="744.09448 : 526.18109 : 1"
       inkscape:vp_y="0 : 1000 : 0"
       inkscape:vp_x="0 : 526.18109 : 1"
       sodipodi:type="inkscape:persp3d" />
    <inkscape:perspective
       sodipodi:type="inkscape:persp3d"
       inkscape:vp_x="0 : 526.18109 : 1"
       inkscape:vp_y="0 : 1000 : 0"
       inkscape:vp_z="744.09448 : 526.18109 : 1"
       inkscape:persp3d-origin="372.04724 : 350.78739 : 1"
       id="perspective2474" />
    <inkscape:perspective
       id="perspective10"
       inkscape:persp3d-origin="372.04724 : 350.78739 : 1"
       inkscape:vp_z="744.09448 : 526.18109 : 1"
       inkscape:vp_y="0 : 1000 : 0"
       inkscape:vp_x="0 : 526.18109 : 1"
       sodipodi:type="inkscape:persp3d" />
  </defs>
  <sodipodi:namedview
     id="base"
     pagecolor="#ffffff"
     bordercolor="#666666"
     borderopacity="1.0"
     gridtolerance="10000"
     guidetolerance="10"
     objecttolerance="10"
     inkscape:pageopacity="0.0"
     inkscape:pageshadow="2"
     inkscape:zoom="3.959798"
     inkscape:cx="-27.164249"
     inkscape:cy="25.280263"
     inkscape:document-units="px"
     inkscape:current-layer="layer1"
     showgrid="false"
     inkscape:window-width="1295"
     inkscape:window-height="744"
     inkscape:window-x="65"
     inkscape:window-y="24"
     fit-margin-top="0"
     fit-margin-left="0"
     fit-margin-right="0"
     fit-margin-bottom="0"
     inkscape:window-maximized="1" />
  <metadata
     id="metadata3205">
    <rdf:RDF>
      <cc:Work
         rdf:about="">
        <dc:format>image/svg+xml</dc:format>
        <dc:type
           rdf:resource="http://purl.org/dc/dcmitype/StillImage" />
        <dc:title>Car</dc:title>
        <cc:license
           rdf:resource="http://creativecommons.org/licenses/by/3.0/" />
        <dc:creator>
          <cc:Agent>
            <dc:title>Frans Schreuder</dc:title>
          </cc:Agent>
        </dc:creator>
      </cc:Work>
      <cc:License
         rdf:about="http://creativecommons.org/licenses/by/3.0/">
        <cc:permits
           rdf:resource="http://creativecommons.org/ns#Reproduction" />
        <cc:permits
           rdf:resource="http://creativecommons.org/ns#Distribution" />
        <cc:requires
           rdf:resource="http://creativecommons.org/ns#Notice" />
        <cc:requires
           rdf:resource="http://creativecommons.org/ns#Attribution" />
        <cc:permits
           rdf:resource="http://creativecommons.org/ns#DerivativeWorks" />
      </cc:License>
    </rdf:RDF>
  </metadata>
  <g
     inkscape:label="Layer 1"
     inkscape:groupmode="layer"
     id="layer1"
     transform="translate(-12.5,-4.4999988)">
    <path
       style="font-style:normal;font-variant:normal;font-weight:normal;font-stretch:normal;font-size:72.72727203px;font-family:RoadSign;-inkscape-font-specification:RoadSign;fill:#ffffff;fill-opacity:1;stroke:#000000;stroke-width:1px;stroke-linecap:butt;stroke-linejoin:miter;stroke-opacity:1"
       d="m 84.999999,74.636362 c -7.6e-5,1.575744 -0.787954,2.363622 -2.363636,2.363636 l -67.272727,0 C 13.787874,76.999984 12.999996,76.212106 13,74.636362 L 13,7.3636352 c -4e-6,-1.5757006 0.787874,-2.3635786 2.363636,-2.3636364 l 67.272727,0 c 1.575682,5.78e-5 2.36356,0.7879358 2.363636,2.3636364 l 0,67.2727268"
       id="path3231"
       inkscape:connector-curvature="0" />
    <text
       xml:space="preserve"
       style="font-style:normal;font-variant:normal;font-weight:normal;font-stretch:normal;font-size:72px;font-family:RoadSign;-inkscape-font-specification:RoadSign;fill:#000000;fill-opacity:1;stroke:none;stroke-width:1px;stroke-linecap:butt;stroke-linejoin:miter;stroke-opacity:1"
       x="-35.535713"
       y="68.785713"
       id="text3301"><tspan
         sodipodi:role="line"
         id="tspan3303"
         x="-35.535713"
         y="68.785713" /></text>
    <text
       xml:space="preserve"
       style="font-style:normal;font-variant:normal;font-weight:normal;font-stretch:normal;font-size:72px;font-family:RoadSign;-inkscape-font-specification:RoadSign;fill:#000000;fill-opacity:1;stroke:none;stroke-width:1px;stroke-linecap:butt;stroke-linejoin:miter;stroke-opacity:1"
       x="-14.285714"
       y="63.25"
       id="text3305"><tspan
         sodipodi:role="line"
         id="tspan3307"
         x="-14.285714"
         y="63.25" /></text>
    <text
       xml:space="preserve"
       style="font-style:normal;font-variant:normal;font-weight:normal;font-stretch:normal;font-size:72px;font-family:RoadSign;-inkscape-font-specification:RoadSign;fill:#000000;fill-opacity:1;stroke:none;stroke-width:1px;stroke-linecap:butt;stroke-linejoin:miter;stroke-opacity:1"
       x="-10.535714"
       y="52.535713"
       id="text3309"><tspan
         sodipodi:role="line"
         id="tspan3311"
         x="-10.535714"
         y="52.535713" /></text>
    <g
       id="g4806"
       transform="matrix(0.1,0,0,0.1,41.857142,38.571427)">
      <g
         id="left"
         transform="translate(-178.57143,-223.21429)">
        <path
           id="path4225"
           d="m 30,370 0,69 c 0,8.864 7.136,16 16,16 l 40,0 c 8.864,0 16,-7.136 16,-16 l 0,-69 z"
           inkscape:connector-curvature="0" />
        <path
           id="path4227"
           d="M 100.5,40 C 88.8907,40 78.9842,47.0138 74.7188,57.0312 l -72.5,170 C 0.78258,230.3982 0,234.0972 0,238.0002 l 0,94 c 0,15.512 12.488,28 28,28 l 223,0 0,-175.125 -192.906,0.53125 c 12.756,-32.024 38.281,-96.0935 38.281,-96.0935 4.788,-12.0195 5.115,-13.6307 12.031,-13.625 L 251,75.81295 251,40 100.5,40 Z"
           inkscape:connector-curvature="0" />
        <path
           id="path4229"
           style="fill:#ffffff"
           d="m 100,270 a 35,35 0 0 1 -70,0 35,35 0 1 1 70,0 z"
           inkscape:connector-curvature="0" />
      </g>
      <use
         id="use4231"
         xlink:href="#left"
         transform="matrix(-1,0,0,1,142.85714,4.0857143e-6)"
         x="0"
         y="0"
         width="100%"
         height="100%" />
    </g>
    <path
       style="fill:#0000ff;fill-opacity:1;stroke:#0000ff;stroke-width:0.26785713;stroke-miterlimit:4;stroke-dasharray:none;stroke-opacity:1"
       d="M 2.1400561,71.799193 C 1.069081,71.478101 1.142116,74.044803 1.1359355,36.510923 1.1303869,2.8149977 1.1381072,2.0120821 1.4716136,1.6002093 l 0.3413574,-0.4215686 34.576126,-0.04599 34.576129,-0.045989 0.439657,0.4396583 0.439659,0.4396584 0,34.4841426 c 0,22.915304 -0.06061,34.597397 -0.180673,34.821732 -0.09937,0.185673 -0.481066,0.421015 -0.848214,0.522979 -0.823909,0.228814 -67.9127409,0.233075 -68.6755989,0.0044 l 0,4e-6 z M 20.953696,57.070459 c 0.791041,-0.409065 0.916728,-1.14352 0.855469,-4.998961 l -0.05391,-3.392857 -3.660714,0 -3.660714,0 0,3.67898 c 0,3.905341 0.08921,4.395488 0.86867,4.772916 0.629678,0.3049 5.035992,0.258056 5.651198,-0.06008 z m 36.767419,0.0095 c 0.832166,-0.43033 0.921527,-0.927518 0.868416,-4.83165 l -0.04856,-3.569632 -3.660715,0 -3.660714,0 0,3.809569 0,3.809572 0.583175,0.520786 0.583173,0.520787 2.416766,0 c 1.764109,0 2.552248,-0.07006 2.918459,-0.259436 l 0,4e-6 z m 1.83195,-9.388755 c 0.729397,-0.20259 1.676498,-1.164984 1.887111,-1.917584 0.07508,-0.268291 0.135459,-2.858336 0.134177,-5.755658 l -0.0023,-5.267857 -3.803821,-8.839285 c -2.092098,-4.861608 -3.979441,-9.027725 -4.194091,-9.258039 -0.895795,-0.961164 -0.141613,-0.920533 -17.086702,-0.920533 -16.945543,0 -16.200707,-0.04014 -17.079478,0.920533 -0.210679,0.230314 -2.078982,4.403998 -4.151787,9.274851 l -3.768735,8.8561 0,5.483125 c 0,6.041664 0.01337,6.125034 1.115884,6.955825 0.3193,0.240607 0.741259,0.476511 0.937688,0.52423 0.746509,0.181356 45.353021,0.127347 46.012094,-0.05571 l 0,4e-6 z"
       id="path5523"
       inkscape:connector-curvature="0"
       transform="translate(12.5,4.4999988)" />
    <path
       style="fill:#0000ff;fill-opacity:1;stroke:#0000ff;stroke-width:0.26785713;stroke-miterlimit:4;stroke-dasharray:none;stroke-opacity:1"
       d="m 17.606776,29.883998 c 0.21654,-0.755219 3.923937,-9.970953 4.093316,-10.175042 0.149316,-0.179915 3.222331,-0.226744 14.879468,-0.226744 l 14.691287,0 2.145531,5.357143 2.145532,5.357143 -19.022368,0 c -18.031628,0 -19.017702,-0.01628 -18.932766,-0.3125 z"
       id="path5525"
       inkscape:connector-curvature="0"
       transform="translate(12.5,4.4999988)" />
    <path
       style="fill:#0000ff;fill-opacity:1;stroke:#0000ff;stroke-width:0.26785713;stroke-miterlimit:4;stroke-dasharray:none;stroke-opacity:1"
       d="m 16.523777,41.78075 c -1.963953,-0.972136 -2.542972,-3.523627 -1.169933,-5.155392 1.399315,-1.662991 4.028761,-1.641817 5.303178,0.04271 1.332139,1.76082 0.774379,4.168568 -1.185433,5.117297 -0.987967,0.478267 -1.9754,0.476722 -2.947812,-0.0046 z"
       id="path5527"
       inkscape:connector-curvature="0"
       transform="translate(12.5,4.4999988)" />
    <path
       style="fill:#0000ff;fill-opacity:1;stroke:#0000ff;stroke-width:0.26785713;stroke-miterlimit:4;stroke-dasharray:none;stroke-opacity:1"
       d="m 53.473351,41.773471 c -1.951963,-0.966192 -2.426491,-3.694341 -0.937632,-5.390618 0.998757,-1.137898 3.167443,-1.333565 4.395853,-0.396611 1.222182,0.932204 1.71866,2.274029 1.349143,3.646311 -0.55357,2.055802 -2.883271,3.093314 -4.807364,2.140918 z"
       id="path5529"
       inkscape:connector-curvature="0"
       transform="translate(12.5,4.4999988)" />
  </g>
</svg>
