<?xml version="1.0" encoding="UTF-8" standalone="no"?>
<!-- Created with Inkscape (http://www.inkscape.org/) -->

<svg
   xmlns:dc="http://purl.org/dc/elements/1.1/"
   xmlns:cc="http://creativecommons.org/ns#"
   xmlns:rdf="http://www.w3.org/1999/02/22-rdf-syntax-ns#"
   xmlns:svg="http://www.w3.org/2000/svg"
   xmlns="http://www.w3.org/2000/svg"
   xmlns:sodipodi="http://sodipodi.sourceforge.net/DTD/sodipodi-0.dtd"
   xmlns:inkscape="http://www.inkscape.org/namespaces/inkscape"
   width="73"
   height="73"
   id="svg3200"
   sodipodi:version="0.32"
   inkscape:version="0.91 r13725"
   version="1.0"
   sodipodi:docname="foot.svg"
   inkscape:output_extension="org.inkscape.output.svg.inkscape"
   inkscape:export-filename="/home/milo/Desktop/AND/svg/residential.png"
   inkscape:export-xdpi="90"
   inkscape:export-ydpi="90">
  <title
     id="title4832">Car</title>
  <defs
     id="defs3202">
    <inkscape:perspective
       sodipodi:type="inkscape:persp3d"
       inkscape:vp_x="0 : 526.18109 : 1"
       inkscape:vp_y="0 : 1000 : 0"
       inkscape:vp_z="744.09448 : 526.18109 : 1"
       inkscape:persp3d-origin="372.04724 : 350.78739 : 1"
       id="perspective3208" />
    <inkscape:perspective
       id="perspective2458"
       inkscape:persp3d-origin="372.04724 : 350.78739 : 1"
       inkscape:vp_z="744.09448 : 526.18109 : 1"
       inkscape:vp_y="0 : 1000 : 0"
       inkscape:vp_x="0 : 526.18109 : 1"
       sodipodi:type="inkscape:persp3d" />
    <inkscape:perspective
       id="perspective2532"
       inkscape:persp3d-origin="372.04724 : 350.78739 : 1"
       inkscape:vp_z="744.09448 : 526.18109 : 1"
       inkscape:vp_y="0 : 1000 : 0"
       inkscape:vp_x="0 : 526.18109 : 1"
       sodipodi:type="inkscape:persp3d" />
    <inkscape:perspective
       id="perspective2680"
       inkscape:persp3d-origin="372.04724 : 350.78739 : 1"
       inkscape:vp_z="744.09448 : 526.18109 : 1"
       inkscape:vp_y="0 : 1000 : 0"
       inkscape:vp_x="0 : 526.18109 : 1"
       sodipodi:type="inkscape:persp3d" />
    <inkscape:perspective
       id="perspective2749"
       inkscape:persp3d-origin="372.04724 : 350.78739 : 1"
       inkscape:vp_z="744.09448 : 526.18109 : 1"
       inkscape:vp_y="0 : 1000 : 0"
       inkscape:vp_x="0 : 526.18109 : 1"
       sodipodi:type="inkscape:persp3d" />
    <inkscape:perspective
       sodipodi:type="inkscape:persp3d"
       inkscape:vp_x="0 : 526.18109 : 1"
       inkscape:vp_y="0 : 1000 : 0"
       inkscape:vp_z="744.09448 : 526.18109 : 1"
       inkscape:persp3d-origin="372.04724 : 350.78739 : 1"
       id="perspective2474" />
    <inkscape:perspective
       id="perspective10"
       inkscape:persp3d-origin="372.04724 : 350.78739 : 1"
       inkscape:vp_z="744.09448 : 526.18109 : 1"
       inkscape:vp_y="0 : 1000 : 0"
       inkscape:vp_x="0 : 526.18109 : 1"
       sodipodi:type="inkscape:persp3d" />
  </defs>
  <sodipodi:namedview
     id="base"
     pagecolor="#ffffff"
     bordercolor="#666666"
     borderopacity="1.0"
     gridtolerance="10000"
     guidetolerance="10"
     objecttolerance="10"
     inkscape:pageopacity="0.0"
     inkscape:pageshadow="2"
     inkscape:zoom="3.959798"
     inkscape:cx="69.676593"
     inkscape:cy="44.781864"
     inkscape:document-units="px"
     inkscape:current-layer="layer1"
     showgrid="false"
     inkscape:window-width="1295"
     inkscape:window-height="744"
     inkscape:window-x="65"
     inkscape:window-y="24"
     fit-margin-top="0"
     fit-margin-left="0"
     fit-margin-right="0"
     fit-margin-bottom="0"
     inkscape:window-maximized="1" />
  <metadata
     id="metadata3205">
    <rdf:RDF>
      <cc:Work
         rdf:about="">
        <dc:format>image/svg+xml</dc:format>
        <dc:type
           rdf:resource="http://purl.org/dc/dcmitype/StillImage" />
        <dc:title>Car</dc:title>
        <cc:license
           rdf:resource="http://creativecommons.org/licenses/by/3.0/" />
        <dc:creator>
          <cc:Agent>
            <dc:title>Frans Schreuder</dc:title>
          </cc:Agent>
        </dc:creator>
      </cc:Work>
      <cc:License
         rdf:about="http://creativecommons.org/licenses/by/3.0/">
        <cc:permits
           rdf:resource="http://creativecommons.org/ns#Reproduction" />
        <cc:permits
           rdf:resource="http://creativecommons.org/ns#Distribution" />
        <cc:requires
           rdf:resource="http://creativecommons.org/ns#Notice" />
        <cc:requires
           rdf:resource="http://creativecommons.org/ns#Attribution" />
        <cc:permits
           rdf:resource="http://creativecommons.org/ns#DerivativeWorks" />
      </cc:License>
    </rdf:RDF>
  </metadata>
  <g
     inkscape:label="Layer 1"
     inkscape:groupmode="layer"
     id="layer1"
     transform="translate(-12.5,-4.4999988)">
    <g
       transform="matrix(0.06,0,0,0.06,26.978119,11.646236)"
       id="g7">
      <title
         id="title9">Layer 1</title>
      <g
         id="svg_1">
        <path
           style="fill:#000000;fill-rule:nonzero"
           inkscape:connector-curvature="0"
           d="m 408.68048,206.14777 c 41.96622,3.39982 78.3169,-27.78019 81.71689,-69.59896 3.24966,-41.821423 -27.93009,-78.172162 -69.8963,-81.719312 -41.5242,-3.102509 -78.16968,28.0774 -81.27469,69.896272 -3.54465,41.52412 27.63275,78.17207 69.4541,81.422"
           id="path4536" />
        <path
           style="fill:#000000;fill-rule:nonzero"
           inkscape:connector-curvature="0"
           d="m 344.3996,237.32768 c 14.92563,-10.49154 33.10101,-17.43594 53.34479,-15.66495 26.00903,2.07096 47.28692,18.17797 60.29141,37.82964 l 76.54599,151.76294 104.47351,71.96463 c 8.86523,6.79684 14.48071,17.87811 13.29925,29.99588 -1.47894,18.76733 -17.88067,32.80609 -36.64807,31.17987 -5.76288,-0.29486 -10.49151,-2.66034 -15.66241,-5.02362 l -113.93332,-78.4668 c -3.54465,-2.80768 -6.35239,-6.35483 -8.71808,-10.04931 l -28.51953,-56.89179 -34.42975,151.3183 134.61923,159.00207 c 3.10242,4.87604 5.17059,10.63892 6.35486,16.40168 l 36.35071,191.95562 c -0.29474,4.284 0.29468,6.94434 0,10.34418 -2.06842,28.66693 -26.89331,49.35535 -55.11804,47.28693 -23.49628,-1.92096 -40.78476,-19.21204 -46.25278,-40.63727 l -34.28259,-179.83777 -109.49942,-119.6936 -25.26954,116.591 c -0.8843,5.46564 -8.12591,16.99383 -10.19433,21.57263 L 206.08603,945.29803 c -10.34422,16.10706 -27.93006,26.45136 -47.87905,24.82758 -28.51954,-2.07087 -49.64999,-26.89582 -47.28694,-55.26801 0.59206,-7.97864 3.9918,-16.40179 6.94698,-22.16467 l 97.52901,-163.5835 81.42202,-360.55978 -53.19975,43.00046 -28.22227,128.4115 c -3.84188,16.55175 -18.76745,29.99841 -36.35328,28.66967 -19.06211,-1.47894 -32.95349,-17.88079 -31.47465,-36.94281 0,-1.47894 0.29474,-2.95532 0.59203,-4.72894 L 181.55577,377.2677 c 2.06831,-6.35501 5.46806,-12.11789 10.49155,-16.55182 L 344.3996,237.32768 Z"
           id="path4538" />
      </g>
    </g>
  </g>
</svg>
