<?xml version="1.0" encoding="UTF-8" standalone="no"?>
<!-- Created with Inkscape (http://www.inkscape.org/) -->

<svg
   xmlns:dc="http://purl.org/dc/elements/1.1/"
   xmlns:cc="http://creativecommons.org/ns#"
   xmlns:rdf="http://www.w3.org/1999/02/22-rdf-syntax-ns#"
   xmlns:svg="http://www.w3.org/2000/svg"
   xmlns="http://www.w3.org/2000/svg"
   xmlns:sodipodi="http://sodipodi.sourceforge.net/DTD/sodipodi-0.dtd"
   xmlns:inkscape="http://www.inkscape.org/namespaces/inkscape"
   width="73"
   height="73"
   id="svg3200"
   sodipodi:version="0.32"
   inkscape:version="0.48.4 r9939"
   version="1.0"
   sodipodi:docname="routeFinish.svg"
   inkscape:output_extension="org.inkscape.output.svg.inkscape"
   inkscape:export-filename="/home/milo/Desktop/AND/svg/residential.png"
   inkscape:export-xdpi="90"
   inkscape:export-ydpi="90">
  <title
     id="title4155">Bicycle</title>
  <defs
     id="defs3202">
    <inkscape:perspective
       sodipodi:type="inkscape:persp3d"
       inkscape:vp_x="0 : 526.18109 : 1"
       inkscape:vp_y="0 : 1000 : 0"
       inkscape:vp_z="744.09448 : 526.18109 : 1"
       inkscape:persp3d-origin="372.04724 : 350.78739 : 1"
       id="perspective3208" />
    <inkscape:perspective
       id="perspective2458"
       inkscape:persp3d-origin="372.04724 : 350.78739 : 1"
       inkscape:vp_z="744.09448 : 526.18109 : 1"
       inkscape:vp_y="0 : 1000 : 0"
       inkscape:vp_x="0 : 526.18109 : 1"
       sodipodi:type="inkscape:persp3d" />
    <inkscape:perspective
       id="perspective2532"
       inkscape:persp3d-origin="372.04724 : 350.78739 : 1"
       inkscape:vp_z="744.09448 : 526.18109 : 1"
       inkscape:vp_y="0 : 1000 : 0"
       inkscape:vp_x="0 : 526.18109 : 1"
       sodipodi:type="inkscape:persp3d" />
    <inkscape:perspective
       id="perspective2680"
       inkscape:persp3d-origin="372.04724 : 350.78739 : 1"
       inkscape:vp_z="744.09448 : 526.18109 : 1"
       inkscape:vp_y="0 : 1000 : 0"
       inkscape:vp_x="0 : 526.18109 : 1"
       sodipodi:type="inkscape:persp3d" />
    <inkscape:perspective
       id="perspective2749"
       inkscape:persp3d-origin="372.04724 : 350.78739 : 1"
       inkscape:vp_z="744.09448 : 526.18109 : 1"
       inkscape:vp_y="0 : 1000 : 0"
       inkscape:vp_x="0 : 526.18109 : 1"
       sodipodi:type="inkscape:persp3d" />
    <inkscape:perspective
       sodipodi:type="inkscape:persp3d"
       inkscape:vp_x="0 : 526.18109 : 1"
       inkscape:vp_y="0 : 1000 : 0"
       inkscape:vp_z="744.09448 : 526.18109 : 1"
       inkscape:persp3d-origin="372.04724 : 350.78739 : 1"
       id="perspective2474" />
    <inkscape:perspective
       id="perspective10"
       inkscape:persp3d-origin="372.04724 : 350.78739 : 1"
       inkscape:vp_z="744.09448 : 526.18109 : 1"
       inkscape:vp_y="0 : 1000 : 0"
       inkscape:vp_x="0 : 526.18109 : 1"
       sodipodi:type="inkscape:persp3d" />
  </defs>
  <sodipodi:namedview
     id="base"
     pagecolor="#ffffff"
     bordercolor="#666666"
     borderopacity="1.0"
     gridtolerance="10000"
     guidetolerance="10"
     objecttolerance="10000"
     inkscape:pageopacity="0.0"
     inkscape:pageshadow="2"
     inkscape:zoom="8"
     inkscape:cx="-23.71014"
     inkscape:cy="49.336336"
     inkscape:document-units="px"
     inkscape:current-layer="layer1"
     showgrid="true"
     inkscape:window-width="1871"
     inkscape:window-height="1176"
     inkscape:window-x="49"
     inkscape:window-y="24"
     fit-margin-top="0"
     fit-margin-left="0"
     fit-margin-right="0"
     fit-margin-bottom="0"
     inkscape:window-maximized="1">
    <inkscape:grid
       type="xygrid"
       id="grid3797"
       empspacing="5"
       visible="true"
       enabled="true"
       snapvisiblegridlinesonly="true" />
  </sodipodi:namedview>
  <metadata
     id="metadata3205">
    <rdf:RDF>
      <cc:Work
         rdf:about="">
        <dc:format>image/svg+xml</dc:format>
        <dc:type
           rdf:resource="http://purl.org/dc/dcmitype/StillImage" />
        <dc:title>Bicycle</dc:title>
        <cc:license
           rdf:resource="http://creativecommons.org/licenses/by/3.0/" />
        <dc:creator>
          <cc:Agent>
            <dc:title>Frans Schreuder</dc:title>
          </cc:Agent>
        </dc:creator>
      </cc:Work>
      <cc:License
         rdf:about="http://creativecommons.org/licenses/by/3.0/">
        <cc:permits
           rdf:resource="http://creativecommons.org/ns#Reproduction" />
        <cc:permits
           rdf:resource="http://creativecommons.org/ns#Distribution" />
        <cc:requires
           rdf:resource="http://creativecommons.org/ns#Notice" />
        <cc:requires
           rdf:resource="http://creativecommons.org/ns#Attribution" />
        <cc:permits
           rdf:resource="http://creativecommons.org/ns#DerivativeWorks" />
      </cc:License>
    </rdf:RDF>
  </metadata>
  <g
     inkscape:label="Layer 1"
     inkscape:groupmode="layer"
     id="layer1"
     transform="translate(-12.5,-4.4999988)">
    <path
       id="path5"
       d="m 47.726825,19.722623 2.694,4.359 -4.875,3.573 -2.775,-4.488 -3.918,2.424 -2.427,-3.921 3.924,-2.427 2.427,3.918 4.95,-3.438 z m 0.246,11.85 -2.421,-3.918 -3.924,2.424 2.421,3.918 3.924,-2.424 z m 22.458,-8.493 -0.432,0.936 c -0.78,4.290001 -3.438,7.164 -5.415,8.385 -4.278,2.643 -8.709,1.059 -8.892,0.993001 -2.874,-0.609001 -5.442,-0.261001 -7.56,1.049999 -3.924,2.427 -5.043,7.401 -5.052,7.458 l -0.261,1.221 15.546,25.134001 -2.517,1.563 -27.687,-44.760001 c -0.531,0.210001 -1.152,0.036 -1.464,-0.468 -0.354,-0.573 -0.177,-1.317 0.393,-1.671 l 2.082,-1.284 c 0.564,-0.354 1.314,-0.177 1.668,0.396 0.294,0.477 0.201,1.062 -0.168,1.455 l 0.747,1.212001 0.018,-0.039 c 1.626,-3.945 3.696,-6.714 6.15,-8.226 4.452,-2.750999 8.52,-0.462 8.691,-0.363 3.48,2.028 5.958,1.374 7.422,0.468 0.627,-0.39 0.957,-0.767999 0.957,-0.767999 3.438,-3.015 4.821,-6.4290005 5.43,-7.6770005 0.606,-1.245 1.689,1.149 1.689,1.149 l 8.655,13.8359995 z m -10.854,-11.717999 0.627,1.014 1.539,-1.2 -1.23,-1.9860005 c -0.252,0.501 -0.48,1.4130005 -0.936,2.1720005 z m -16.821,28.172999 -0.705,0.438 0.333,0.531 c 0.096,-0.279 0.225,-0.618 0.372,-0.969 z m 12.747,-7.236 -0.54,-0.873 -0.528,0.714 c 0.351,0.039 0.711,0.087 1.068,0.159 z m 3.801,-2.628 -2.121,-3.426 4.299,-3.029999 -2.427,-3.918 -4.293,3.035999 -2.517,-4.065 c -0.504,0.12 -1.068,0.192 -1.689,0.186 l -2.826,1.272 -1.554,-2.502 c -0.144,-0.081 -0.285,-0.153 -0.432,-0.237 -0.048,-0.027 -0.423,-0.237 -1.038,-0.441 l -4.359,2.697 -1.443,-2.325 c -0.249,0.117001 -0.504,0.258 -0.762,0.417 -1.005,0.621001 -1.935,1.491 -2.802,2.58 l 1.083,1.758 -3.441,2.124001 c -0.156,0.332999 -0.309,0.662999 -0.459,1.016999 l 2.121,3.378 4.206,-2.601 2.778,4.485 -4.173,2.583 2.451,3.900001 4.143,-2.562001 1.053,1.695 c 0.681,-0.792 1.491,-1.542 2.475,-2.153999 0.396,-0.240001 0.807,-0.441001 1.224,-0.630001 l -0.828,-1.338 4.896,-3.528 -2.448,-3.96 4.335,-1.749 2.421,3.915001 -4.305,1.793999 2.007,3.243 4.425,-1.614 z m 9.567,-7.083 -0.063,-0.102 -1.506,1.368 -2.094,-3.378 1.578,-1.227 -2.613,-4.182 -1.392,1.488 -2.574,-4.169999 -2.271,1.404 c -0.399,0.527999 -0.843,1.047 -1.314,1.556999 l 2.436,3.945 3.729,-2.739 2.421,3.924 -3.723,2.736001 2.121,3.425999 -4.188,3.216 1.728,2.790001 c 0.936,-0.195001 1.917,-0.546001 2.883,-1.143001 0.615,-0.381 1.191,-0.846 1.728,-1.383 l -2.151,-3.476999 3.696,-2.787001 1.23,1.989001 0.339,-3.255001 z"
       style="fill:#ffffff;fill-opacity:1"
       inkscape:connector-curvature="0" />
    <g
       transform="matrix(3,0,0,3,17.429825,7.7346235)"
       id="g7" />
    <g
       transform="matrix(3,0,0,3,17.429825,7.7346235)"
       id="g9" />
    <g
       transform="matrix(3,0,0,3,17.429825,7.7346235)"
       id="g11" />
    <g
       transform="matrix(3,0,0,3,17.429825,7.7346235)"
       id="g13" />
    <g
       transform="matrix(3,0,0,3,17.429825,7.7346235)"
       id="g15" />
    <g
       transform="matrix(3,0,0,3,17.429825,7.7346235)"
       id="g17" />
    <g
       transform="matrix(3,0,0,3,17.429825,7.7346235)"
       id="g19" />
    <g
       transform="matrix(3,0,0,3,17.429825,7.7346235)"
       id="g21" />
    <g
       transform="matrix(3,0,0,3,17.429825,7.7346235)"
       id="g23" />
    <g
       transform="matrix(3,0,0,3,17.429825,7.7346235)"
       id="g25" />
    <g
       transform="matrix(3,0,0,3,17.429825,7.7346235)"
       id="g27" />
    <g
       transform="matrix(3,0,0,3,17.429825,7.7346235)"
       id="g29" />
    <g
       transform="matrix(3,0,0,3,17.429825,7.7346235)"
       id="g31" />
    <g
       transform="matrix(3,0,0,3,17.429825,7.7346235)"
       id="g33" />
    <g
       transform="matrix(3,0,0,3,17.429825,7.7346235)"
       id="g35" />
  </g>
</svg>
